<?xml version="1.0" encoding="UTF-8" standalone="no"?>
<!-- Created with Inkscape (http://www.inkscape.org/) -->

<svg
   version="1.1"
   id="svg2"
   width="152.63281"
   height="141.20256"
   viewBox="0 0 152.63281 141.20256"
   xml:space="preserve"
   xmlns="http://www.w3.org/2000/svg"
   xmlns:svg="http://www.w3.org/2000/svg"><defs
     id="defs6"><clipPath
       clipPathUnits="userSpaceOnUse"
       id="clipPath9-8"><path
         d="M 0,447.155 H 782.998 V 0 H 0 Z"
         transform="translate(-349.58151,-276.91941)"
         id="path9-7" /></clipPath><linearGradient
       x1="0"
       y1="0"
       x2="1"
       y2="0"
       gradientUnits="userSpaceOnUse"
       gradientTransform="matrix(1.8267964,-41.407665,-41.407665,-1.8267964,387.1701,294.14639)"
       spreadMethod="pad"
       id="linearGradient13"><stop
         style="stop-opacity:1;stop-color:#9c36ef"
         offset="0"
         id="stop9" /><stop
         style="stop-opacity:1;stop-color:#4c0262"
         offset="0.3839459"
         id="stop10" /><stop
         style="stop-opacity:1;stop-color:#4c0262"
         offset="0.483146"
         id="stop11" /><stop
         style="stop-opacity:1;stop-color:#4c0262"
         offset="0.58877034"
         id="stop12" /><stop
         style="stop-opacity:1;stop-color:#21042d"
         offset="1"
         id="stop13" /></linearGradient><clipPath
       clipPathUnits="userSpaceOnUse"
       id="clipPath23"><path
         d="M 0,447.155 H 782.998 V 0 H 0 Z"
         transform="translate(-369.47361,-272.45361)"
         id="path23" /></clipPath><clipPath
       clipPathUnits="userSpaceOnUse"
       id="clipPath25"><path
         d="M 0,447.155 H 782.998 V 0 H 0 Z"
         transform="translate(-387.36031,-274.17041)"
         id="path25" /></clipPath><clipPath
       clipPathUnits="userSpaceOnUse"
       id="clipPath27"><path
         d="M 0,447.155 H 782.998 V 0 H 0 Z"
         transform="translate(-380.49121,-280.94771)"
         id="path27" /></clipPath><clipPath
       clipPathUnits="userSpaceOnUse"
       id="clipPath29"><path
         d="M 0,447.155 H 782.998 V 0 H 0 Z"
         transform="translate(-381.06391,-257.55221)"
         id="path29" /></clipPath><clipPath
       clipPathUnits="userSpaceOnUse"
       id="clipPath31"><path
         d="M 0,447.155 H 782.998 V 0 H 0 Z"
         transform="translate(-369.18701,-251.25581)"
         id="path31" /></clipPath><clipPath
       clipPathUnits="userSpaceOnUse"
       id="clipPath33"><path
         d="M 0,447.155 H 782.998 V 0 H 0 Z"
         transform="translate(-404.38861,-285.09711)"
         id="path33" /></clipPath><clipPath
       clipPathUnits="userSpaceOnUse"
       id="clipPath35"><path
         d="M 0,447.155 H 782.998 V 0 H 0 Z"
         transform="translate(-413.83301,-248.6811)"
         id="path35" /></clipPath></defs><g
     id="layer-MC0"
     transform="translate(-442.64426,-158.64842)"><g
       id="g22"><path
         id="path8"
         clip-path="url(#clipPath9-8)"
         style="fill:#ffffff;fill-opacity:1;fill-rule:nonzero;stroke:none"
         d="m 39.638979,51.249273 c -31.6109684,0 -57.237306,-25.626338 -57.237306,-57.237306 0,-15.299985 6.014955,-29.186578 15.7939455,-39.455567 0.86087466,0.155777 1.75334318,0.221487 2.65576183,0.23291 8.95972017,-8.234688 21.01635467,-10.133627 27.72070367,-9.240235 -12.472017,0.831933 -19.9051932,4.961481 -24.3251958,9.355957 -0.9188578,1.893129 0.1323897,3.367729 1.3022462,4.337403 C 14.343305,-48.02813 25.577606,-49.713911 31.961733,-48.862546 -1.7989096,-46.609399 -1.4458288,-18.905208 2.7249155,-0.26342344 6.7269115,17.622559 22.567063,22.684818 32.615053,24.830815 c 6.451994,1.376999 11.863178,0.261028 13.305176,-0.02197 10.08699,-1.982998 24.91406,-7.758284 29.206056,-25.07226644 C 79.393204,-17.473855 75.562605,-29.45601 72.704898,-35.328852 69.154201,-40.950031 61.478567,-47.815731 44.981264,-48.916743 c 6.501535,-0.867023 18.032612,0.897497 26.894532,8.512207 1.388466,-0.999789 2.95935,-2.761062 1.533692,-5.078613 0.02526,0.0042 0.0509,0.0047 0.07617,0.0088 -4.463363,-4.250122 -11.813714,-8.168673 -23.925293,-8.976563 6.705893,-0.893494 18.764247,1.006098 27.723633,9.243164 1.221558,-0.03489 2.416927,-0.19174 3.543458,-0.503906 9.92899,10.29399 16.048828,24.290649 16.048828,39.723634 0,31.610968 -25.625338,57.237306 -57.237306,57.237306 z M 3.0609376e-4,2.4843751e-4 C -2.2676916,-9.4897421 -2.1672984,-17.434817 -1.1202994,-23.684811 c -4.3869956,2.032998 -7.4370119,6.463217 -7.4370119,11.616211 0,5.5799949 3.5766224,10.3158502 8.55761739376,12.06884843751 z m 78.15966990624,0 C 83.139971,-1.7527498 86.716129,-6.4886051 86.716129,-12.0686 c 0,-5.152994 -3.048552,-9.583213 -7.435547,-11.616211 1.046998,6.249994 1.146392,14.1950689 -1.120606,23.68505943751 z"
         transform="matrix(1.3333333,0,0,-1.3333333,466.10867,226.9808)" /><path
         id="path13-2"
         d="m 379.959,289.713 c -6.656,-1.255 -13.919,-3.627 -19.013,-8.478 v 0 c -12.02,-11.449 -5.724,-36.918 3.149,-41.497 v 0 c 5.982,-3.09 14.833,-5.257 24.439,-4.941 v 0 c 9.604,-0.316 18.455,1.851 24.44,4.941 v 0 c 8.871,4.579 15.168,30.048 3.148,41.497 v 0 c -5.094,4.851 -12.347,7.282 -19.012,8.478 v 0 c -1.833,0.328 -4.948,0.761 -8.733,0.761 v 0 c -2.562,0 -5.431,-0.198 -8.418,-0.761"
         transform="matrix(1.3333333,0,0,-1.3333333,0,596.20667)"
         style="fill:url(#linearGradient13);stroke:none" /><g
         id="g19"><path
           id="path22-3"
           d="M 0,0 0.709,-3.39 4.097,-4.097 0.709,-4.806 0,-8.195 l -0.709,3.389 -3.388,0.709 3.388,0.707 z"
           style="fill:#ffffff;fill-opacity:1;fill-rule:nonzero;stroke:none"
           transform="matrix(1.3333333,0,0,-1.3333333,492.63147,232.9352)"
           clip-path="url(#clipPath23)" /><path
           id="path24"
           d="M 0,0 0.535,-2.561 3.095,-3.095 0.535,-3.63 0,-6.192 l -0.535,2.562 -2.561,0.535 2.561,0.534 z"
           style="fill:#ffffff;fill-opacity:1;fill-rule:nonzero;stroke:none"
           transform="matrix(1.3333333,0,0,-1.3333333,516.4804,230.64613)"
           clip-path="url(#clipPath25)" /><path
           id="path26-9"
           d="m 0,0 c 0,-0.237 -0.191,-0.429 -0.429,-0.429 -0.237,0 -0.429,0.192 -0.429,0.429 0,0.237 0.192,0.429 0.429,0.429 C -0.191,0.429 0,0.237 0,0"
           style="fill:#ffffff;fill-opacity:1;fill-rule:nonzero;stroke:none"
           transform="matrix(1.3333333,0,0,-1.3333333,507.3216,221.60973)"
           clip-path="url(#clipPath27)" /><path
           id="path28"
           d="m 0,0 c 0,-0.198 -0.16,-0.358 -0.357,-0.358 -0.198,0 -0.359,0.16 -0.359,0.358 0,0.197 0.161,0.358 0.359,0.358 C -0.16,0.358 0,0.197 0,0"
           style="fill:#ffffff;fill-opacity:1;fill-rule:nonzero;stroke:none"
           transform="matrix(1.3333333,0,0,-1.3333333,508.0852,252.80373)"
           clip-path="url(#clipPath29)" /><path
           id="path30-7"
           d="m 0,0 c 0,-0.277 -0.225,-0.501 -0.501,-0.501 -0.276,0 -0.501,0.224 -0.501,0.501 0,0.277 0.225,0.501 0.501,0.501 C -0.225,0.501 0,0.277 0,0"
           style="fill:#ffffff;fill-opacity:1;fill-rule:nonzero;stroke:none"
           transform="matrix(1.3333333,0,0,-1.3333333,492.24933,261.19893)"
           clip-path="url(#clipPath31)" /></g><g
         id="g21"><path
           id="path32"
           d="m 0,0 c 0,0 10.874,-10.303 5.437,-31.909 l 5.008,-0.43 c 0,0 5.438,21.894 -10.445,32.339"
           style="fill:#ffffff;fill-opacity:1;fill-rule:nonzero;stroke:none"
           transform="matrix(1.3333333,0,0,-1.3333333,539.1848,216.0772)"
           clip-path="url(#clipPath33)" /><path
           id="path34-7"
           d="m 0,0 c 0,-1.384 -1.154,-2.504 -2.576,-2.504 -1.421,0 -2.575,1.12 -2.575,2.504 0,1.382 1.154,2.503 2.575,2.503 C -1.154,2.503 0,1.382 0,0"
           style="fill:#ffffff;fill-opacity:1;fill-rule:nonzero;stroke:none"
           transform="matrix(1.3333333,0,0,-1.3333333,551.77733,264.63187)"
           clip-path="url(#clipPath35)" /></g></g></g></svg>
