<?xml version="1.0" encoding="UTF-8" standalone="no"?>
<!-- Created with Inkscape (http://www.inkscape.org/) -->

<svg
   version="1.1"
   id="svg2"
   width="699.85358"
   height="93.105591"
   viewBox="0 0 699.85355 93.10559"
   xml:space="preserve"
   xmlns="http://www.w3.org/2000/svg"
   xmlns:svg="http://www.w3.org/2000/svg"><defs
     id="defs6"><clipPath
       clipPathUnits="userSpaceOnUse"
       id="clipPath1"><g
         id="g2"
         transform="translate(-533.2941,-301.8144)"><path
           d="M 0,622.142 H 877.197 V 0 H 0 Z"
           id="path1" /></g></clipPath><clipPath
       clipPathUnits="userSpaceOnUse"
       id="clipPath2"><g
         id="g3"
         transform="translate(-556.541,-344.9852)"><path
           d="M 0,622.142 H 877.197 V 0 H 0 Z"
           id="path2" /></g></clipPath><clipPath
       clipPathUnits="userSpaceOnUse"
       id="clipPath3"><g
         id="g4"
         transform="translate(-555.4395,-343.959)"><path
           d="M 0,622.142 H 877.197 V 0 H 0 Z"
           id="path3" /></g></clipPath><clipPath
       clipPathUnits="userSpaceOnUse"
       id="clipPath4"><g
         id="g5"
         transform="translate(-331.4177,-280.4559)"><path
           d="M 0,622.142 H 877.197 V 0 H 0 Z"
           id="path4" /></g></clipPath><clipPath
       clipPathUnits="userSpaceOnUse"
       id="clipPath5"><g
         id="g6"
         transform="translate(-364.4036,-276.3607)"><path
           d="M 0,622.142 H 877.197 V 0 H 0 Z"
           id="path5" /></g></clipPath><clipPath
       clipPathUnits="userSpaceOnUse"
       id="clipPath6"><g
         id="g7"
         transform="translate(-418.4269,-276.3607)"><path
           d="M 0,622.142 H 877.197 V 0 H 0 Z"
           id="path6" /></g></clipPath><clipPath
       clipPathUnits="userSpaceOnUse"
       id="clipPath7"><g
         id="g9"
         transform="translate(-491.8816,-276.3607)"><path
           d="M 0,622.142 H 877.197 V 0 H 0 Z"
           id="path7" /></g></clipPath><clipPath
       clipPathUnits="userSpaceOnUse"
       id="clipPath9"><g
         id="g10"
         transform="translate(-533.9735,-301.8144)"><path
           d="M 0,622.142 H 877.197 V 0 H 0 Z"
           id="path9" /></g></clipPath><clipPath
       clipPathUnits="userSpaceOnUse"
       id="clipPath10"><g
         id="g11"
         transform="translate(-590.2305,-276.3607)"><path
           d="M 0,622.142 H 877.197 V 0 H 0 Z"
           id="path10" /></g></clipPath><clipPath
       clipPathUnits="userSpaceOnUse"
       id="clipPath11"><g
         id="g12"
         transform="translate(-633.253,-276.3607)"><path
           d="M 0,622.142 H 877.197 V 0 H 0 Z"
           id="path11" /></g></clipPath><clipPath
       clipPathUnits="userSpaceOnUse"
       id="clipPath12"><g
         id="g13"
         transform="translate(-673.8667,-276.3607)"><path
           d="M 0,622.142 H 877.197 V 0 H 0 Z"
           id="path12" /></g></clipPath><clipPath
       clipPathUnits="userSpaceOnUse"
       id="clipPath13"><g
         id="g14"
         transform="translate(-262.2416,-278.862)"><path
           d="M 0,622.142 H 877.197 V 0 H 0 Z"
           id="path13" /></g></clipPath><clipPath
       clipPathUnits="userSpaceOnUse"
       id="clipPath14"><g
         id="g15"
         transform="translate(-242.6485,-333.341)"><path
           d="M 0,622.142 H 877.197 V 0 H 0 Z"
           id="path14" /></g></clipPath><clipPath
       clipPathUnits="userSpaceOnUse"
       id="clipPath15"><g
         id="g16"
         transform="translate(-242.6485,-310.9609)"><path
           d="M 0,622.142 H 877.197 V 0 H 0 Z"
           id="path15" /></g></clipPath></defs><g
     id="g8"
     transform="matrix(1.3333333,0,0,-1.3333333,-233.53799,459.98025)"><g
       id="g17"
       style="fill:#ffffff;fill-opacity:1"><g
         id="g20"
         transform="translate(242.6485,310.9609)"
         style="fill:#ffffff;fill-opacity:1"
         clip-path="url(#clipPath15)"><path
           d="m 0,0 c -37.275,0 -67.495,-7.832 -67.495,-17.493 0,-5.867 11.155,-11.056 28.258,-14.228 -5.008,1.793 -7.952,3.945 -7.952,6.264 0,6.06 19.928,11.003 44.951,11.282 0.742,0.01 1.487,0.014 2.238,0.014 0.753,0 1.5,-0.004 2.241,-0.014 25.023,-0.279 44.95,-5.222 44.95,-11.282 0,-2.319 -2.943,-4.471 -7.953,-6.264 17.104,3.172 28.26,8.361 28.26,14.228 C 67.498,-7.832 37.278,0 0,0"
           style="fill:#ffffff;fill-opacity:1;fill-rule:nonzero;stroke:none"
           id="path22" /></g><g
         id="g24"
         transform="translate(242.6485,333.341)"
         style="fill:#ffffff;fill-opacity:1"
         clip-path="url(#clipPath14)"><path
           d="m 0,0 c 5.487,0 10.781,-1.269 15.556,-3.55 -23.962,6.868 -34.748,-8.551 -37.48,-13.424 -3.184,-0.274 -6.327,-0.588 -9.369,-0.984 C -24.869,-7.016 -12.958,0 0,0 m 0.003,-18.874 c 13.292,0 26.007,-0.991 36.975,-2.819 -5.81,14.75 -20.163,25.2 -36.978,25.2 -16.813,0 -31.163,-10.452 -36.976,-25.2 10.969,1.828 23.683,2.819 36.979,2.819"
           style="fill:#ffffff;fill-opacity:1;fill-rule:nonzero;stroke:none"
           id="path26" /></g><g
         id="g28"
         transform="translate(262.2416,278.862)"
         style="fill:#ffffff;fill-opacity:1"
         clip-path="url(#clipPath13)"><path
           d="m 0,0 c 0,-2.047 -8.772,-3.706 -19.593,-3.706 -10.821,0 -19.592,1.659 -19.592,3.706 0,2.048 8.771,3.707 19.592,3.707 C -8.772,3.707 0,2.048 0,0"
           style="fill:#ffffff;fill-opacity:1;fill-rule:nonzero;stroke:none"
           id="path30" /></g></g><g
       id="g18"
       style="fill:#ffffff;fill-opacity:1"><g
         id="g32"
         transform="translate(673.8667,276.3607)"
         style="fill:#ffffff;fill-opacity:1"
         clip-path="url(#clipPath12)"><path
           d="M 0,0 V 51.068 H 24.811 V 45.046 H 7.146 V 30.673 H 20.235 V 24.651 H 7.146 V 6.022 H 26.177 V 0 Z"
           style="fill:#ffffff;fill-opacity:1;fill-rule:nonzero;stroke:none"
           id="path34" /></g><g
         id="g36"
         transform="translate(633.253,276.3607)"
         style="fill:#ffffff;fill-opacity:1"
         clip-path="url(#clipPath11)"><path
           d="M 0,0 V 51.068 H 24.811 V 45.046 H 7.146 V 30.673 H 20.235 V 24.651 H 7.146 V 6.022 H 26.177 V 0 Z"
           style="fill:#ffffff;fill-opacity:1;fill-rule:nonzero;stroke:none"
           id="path38" /></g><g
         id="g40"
         transform="translate(590.2305,276.3607)"
         style="fill:#ffffff;fill-opacity:1"
         clip-path="url(#clipPath10)"><path
           d="m 0,0 v 51.068 h 11.456 c 5.486,0 9.688,-1.271 12.566,-3.814 2.877,-2.543 4.322,-6.035 4.322,-10.478 0,-3.266 -0.803,-6.023 -2.422,-8.271 -1.619,-2.248 -3.881,-3.881 -6.812,-4.898 L 20.074,21.76 21.198,19.512 30.111,0 H 22.402 L 12.526,22.402 H 11.563 6.905 V 0 Z m 6.905,28.104 h 4.176 c 3.533,0 6.143,0.736 7.829,2.208 1.686,1.472 2.529,3.6 2.529,6.383 0,2.784 -0.883,4.925 -2.65,6.424 -1.766,1.499 -4.443,2.248 -8.029,2.248 H 6.905 Z"
           style="fill:#ffffff;fill-opacity:1;fill-rule:nonzero;stroke:none"
           id="path42" /></g><g
         id="g44"
         transform="translate(533.9735,301.8144)"
         style="fill:#ffffff;fill-opacity:1"
         clip-path="url(#clipPath9)"><path
           d="m 0,0 c 0,3.747 0.53,7.24 1.591,10.479 1.06,3.238 2.562,6.062 4.506,8.471 1.945,2.409 4.309,4.309 7.092,5.701 2.784,1.392 5.91,2.088 9.379,2.088 3.468,0 6.594,-0.696 9.378,-2.088 2.783,-1.392 5.147,-3.292 7.091,-5.701 1.944,-2.409 3.447,-5.233 4.507,-8.471 1.061,-3.239 1.591,-6.705 1.591,-10.398 0,-3.748 -0.53,-7.241 -1.591,-10.479 -1.06,-3.239 -2.563,-6.049 -4.507,-8.431 -1.944,-2.382 -4.308,-4.269 -7.091,-5.661 -2.784,-1.392 -5.91,-2.088 -9.378,-2.088 -3.469,0 -6.595,0.696 -9.379,2.088 -2.783,1.392 -5.147,3.292 -7.092,5.701 -1.944,2.409 -3.446,5.233 -4.506,8.471 C 0.53,-7.079 0,-3.64 0,0 m 6.164,0.081 c 0,-2.838 0.397,-5.488 1.193,-7.95 0.795,-2.462 1.9,-4.604 3.313,-6.424 1.414,-1.82 3.127,-3.251 5.137,-4.296 2.011,-1.043 4.253,-1.565 6.727,-1.565 2.475,0 4.728,0.522 6.761,1.565 2.032,1.045 3.755,2.476 5.169,4.296 1.414,1.82 2.519,3.962 3.314,6.424 0.795,2.462 1.193,5.112 1.193,7.95 0,2.836 -0.398,5.5 -1.193,7.989 -0.795,2.489 -1.9,4.644 -3.314,6.464 -1.414,1.82 -3.137,3.252 -5.169,4.295 -2.033,1.044 -4.286,1.566 -6.761,1.566 -2.474,0 -4.716,-0.522 -6.727,-1.566 C 13.797,17.786 12.084,16.354 10.67,14.534 9.257,12.714 8.152,10.559 7.357,8.07 6.561,5.581 6.164,2.917 6.164,0.081"
           style="fill:#ffffff;fill-opacity:1;fill-rule:nonzero;stroke:none"
           id="path46" /></g><g
         id="g48"
         transform="translate(491.8816,276.3607)"
         style="fill:#ffffff;fill-opacity:1"
         clip-path="url(#clipPath7)"><path
           d="m 0,0 v 51.068 h 11.924 c 2.569,0 4.898,-0.294 6.959,-0.883 2.061,-0.589 3.814,-1.446 5.232,-2.569 1.419,-1.125 2.53,-2.476 3.306,-4.055 0.776,-1.58 1.164,-3.359 1.164,-5.34 0,-2.463 -0.588,-4.657 -1.766,-6.584 -1.191,-1.928 -3.038,-3.346 -5.567,-4.256 3.118,-0.964 5.46,-2.596 7.052,-4.898 1.579,-2.302 2.369,-4.925 2.369,-7.869 0,-2.195 -0.428,-4.175 -1.285,-5.942 C 28.532,6.905 27.274,5.367 25.641,4.055 24.009,2.743 21.988,1.74 19.605,1.044 17.21,0.348 14.467,0 11.349,0 Z m 6.825,29.308 h 4.898 c 3.159,0 5.567,0.683 7.227,2.047 1.659,1.366 2.489,3.413 2.489,6.143 0,2.57 -0.95,4.564 -2.85,5.982 -1.901,1.419 -4.51,2.128 -7.829,2.128 H 6.825 Z m 0,-23.286 h 4.363 c 3.814,0 6.785,0.776 8.913,2.315 2.128,1.553 3.185,3.734 3.185,6.558 0,2.77 -0.87,4.951 -2.623,6.557 -1.753,1.593 -4.51,2.396 -8.27,2.396 H 6.825 Z"
           style="fill:#ffffff;fill-opacity:1;fill-rule:nonzero;stroke:none"
           id="path50" /></g><g
         id="g52"
         transform="translate(418.4269,276.3607)"
         style="fill:#ffffff;fill-opacity:1"
         clip-path="url(#clipPath6)"><path
           d="m 0,0 v 0.803 l 9.314,51.791 0.803,0.08 16.22,-32.359 4.015,-8.672 2.087,4.416 2.008,4.256 16.3,32.359 0.722,-0.08 9.315,-51.791 V 0 H 53.959 L 49.462,28.666 48.418,35.491 45.528,29.388 30.673,-1.124 H 29.95 L 15.256,29.067 12.365,35.17 c -0.267,-1.339 -0.481,-2.61 -0.642,-3.815 -0.16,-1.204 -0.294,-2.101 -0.401,-2.689 L 6.825,0 Z"
           style="fill:#ffffff;fill-opacity:1;fill-rule:nonzero;stroke:none"
           id="path54" /></g><g
         id="g56"
         transform="translate(364.4036,276.3607)"
         style="fill:#ffffff;fill-opacity:1"
         clip-path="url(#clipPath5)"><path
           d="m 0,0 v 0.803 l 22.804,51.871 h 0.803 L 46.331,0.803 V 0 H 39.024 L 35.651,8.27 H 10.358 L 7.066,0 Z m 12.607,13.971 h 20.716 l -8.431,20.155 c -0.214,0.428 -0.482,1.07 -0.803,1.927 l -1.124,2.81 -1.927,-4.737 z"
           style="fill:#ffffff;fill-opacity:1;fill-rule:nonzero;stroke:none"
           id="path58" /></g><g
         id="g60"
         transform="translate(331.4177,280.4559)"
         style="fill:#ffffff;fill-opacity:1"
         clip-path="url(#clipPath4)"><path
           d="M 0,0 3.935,4.818 C 4.898,3.426 5.955,2.409 7.107,1.766 8.257,1.124 9.341,0.803 10.358,0.803 c 1.446,0 2.583,0.441 3.413,1.325 0.83,0.883 1.244,2.315 1.244,4.296 v 40.549 h 7.147 V 7.467 c 0,-4.228 -1.058,-7.4 -3.172,-9.515 -2.128,-2.114 -4.885,-3.172 -8.31,-3.172 -2.088,0 -4.042,0.429 -5.862,1.285 C 2.998,-3.078 1.392,-1.767 0,0"
           style="fill:#ffffff;fill-opacity:1;fill-rule:nonzero;stroke:none"
           id="path62" /></g><g
         id="g64"
         transform="translate(555.4395,343.959)"
         style="fill:#ffffff;fill-opacity:1"
         clip-path="url(#clipPath3)"><path
           d="m 0,0 h 2.203 v -16.53 c -0.4,0.049 -0.852,0.074 -1.226,0.074 -0.373,0 -0.656,-0.016 -0.977,-0.046 z"
           style="fill:#ffffff;fill-opacity:1;fill-rule:evenodd;stroke:none"
           id="path66" /></g><g
         id="g68"
         transform="translate(556.541,344.9852)"
         style="fill:#ffffff;fill-opacity:1"
         clip-path="url(#clipPath2)"><path
           d="m 0,0 c 1.634,0 2.959,-1.325 2.959,-2.959 0,-1.634 -1.325,-2.959 -2.959,-2.959 -1.634,0 -2.959,1.325 -2.959,2.959 C -2.959,-1.325 -1.634,0 0,0"
           style="fill:#ffffff;fill-opacity:1;fill-rule:evenodd;stroke:none"
           id="path70" /></g><g
         id="g72"
         transform="translate(533.2941,301.8144)"
         style="fill:#ffffff;fill-opacity:1"
         clip-path="url(#clipPath1)"><path
           d="m 0,0 c 0,3.747 0.546,7.24 1.638,10.479 1.093,3.238 2.64,6.062 4.643,8.471 2.003,2.409 4.438,4.309 7.305,5.701 2.868,1.392 6.088,2.088 9.661,2.088 3.573,0 6.793,-0.696 9.66,-2.088 2.868,-1.392 5.303,-3.292 7.305,-5.701 2.003,-2.409 3.551,-5.233 4.643,-8.471 1.093,-3.239 1.639,-6.705 1.639,-10.398 0,-3.748 -0.546,-7.241 -1.639,-10.479 -1.092,-3.239 -2.64,-6.049 -4.643,-8.431 -2.002,-2.382 -4.437,-4.269 -7.305,-5.661 -2.867,-1.392 -6.087,-2.088 -9.66,-2.088 -3.573,0 -6.793,0.696 -9.661,2.088 -2.867,1.392 -5.302,3.292 -7.305,5.701 -2.003,2.409 -3.55,5.233 -4.643,8.471 C 0.546,-7.079 0,-3.64 0,0 m 6.349,0.081 c 0,-2.838 0.41,-5.488 1.229,-7.95 0.819,-2.462 1.957,-4.604 3.414,-6.424 1.456,-1.82 3.22,-3.251 5.291,-4.296 2.071,-1.043 4.381,-1.565 6.93,-1.565 2.548,0 4.87,0.522 6.963,1.565 2.094,1.045 3.869,2.476 5.326,4.296 1.456,1.82 2.594,3.962 3.413,6.424 0.82,2.462 1.229,5.112 1.229,7.95 0,2.836 -0.409,5.5 -1.229,7.989 -0.819,2.489 -1.957,4.644 -3.413,6.464 -1.457,1.82 -3.232,3.252 -5.326,4.295 -2.093,1.044 -4.415,1.566 -6.963,1.566 -2.549,0 -4.859,-0.522 -6.93,-1.566 C 14.212,17.786 12.448,16.354 10.992,14.534 9.535,12.714 8.397,10.559 7.578,8.07 6.759,5.581 6.349,2.917 6.349,0.081"
           style="fill:#ffffff;fill-opacity:1;fill-rule:nonzero;stroke:none"
           id="path74" /></g></g></g></svg>
