<?xml version="1.0" encoding="UTF-8" standalone="no"?>
<!-- Created with Inkscape (http://www.inkscape.org/) -->

<svg
   version="1.1"
   id="svg2"
   width="670.42004"
   height="69.966675"
   viewBox="0 0 670.42003 69.966674"
   xml:space="preserve"
   xmlns="http://www.w3.org/2000/svg"
   xmlns:svg="http://www.w3.org/2000/svg"><defs
     id="defs6"><clipPath
       clipPathUnits="userSpaceOnUse"
       id="clipPath7-0"><path
         d="M 0,447.155 H 782.998 V 0 H 0 Z"
         transform="translate(-387.38281,-190.8369)"
         id="path7-4" /></clipPath></defs><g
     id="layer-MC0"
     transform="translate(-189.37827,-316.62946)"><path
       id="path6-3"
       d="M 0,0 V 5.605 H -7.988 V -32.998 H 0 v 20.318 c 0,3.922 0.805,6.678 2.416,8.266 1.611,1.588 3.982,2.383 7.111,2.383 h 2.032 V 6.236 C 8.897,6.236 6.596,5.687 4.658,4.59 2.719,3.492 1.166,1.961 0,0 m -22.978,-20.809 c -1.122,-1.961 -2.583,-3.433 -4.379,-4.414 -1.799,-0.98 -3.727,-1.47 -5.782,-1.47 -3.222,0 -5.896,1.132 -8.021,3.398 -2.125,2.266 -3.188,5.477 -3.188,9.633 0,2.803 0.514,5.174 1.541,7.111 1.028,1.938 2.416,3.399 4.168,4.379 1.752,0.981 3.657,1.471 5.711,1.471 2.055,0 3.969,-0.49 5.744,-1.471 1.776,-0.98 3.202,-2.441 4.276,-4.379 1.074,-1.937 1.611,-4.308 1.611,-7.111 0,-2.803 -0.56,-5.186 -1.681,-7.147 m 0.208,24.592 c -2.988,1.635 -6.328,2.453 -10.017,2.453 -3.691,0 -7.031,-0.818 -10.02,-2.453 -2.988,-1.635 -5.347,-3.97 -7.076,-7.006 -1.728,-3.035 -2.592,-6.515 -2.592,-10.439 0,-3.971 0.84,-7.463 2.522,-10.475 1.682,-3.011 3.994,-5.347 6.937,-7.006 2.942,-1.658 6.235,-2.486 9.877,-2.486 3.69,0 7.065,0.828 10.123,2.486 3.059,1.659 5.477,4.006 7.252,7.041 1.776,3.036 2.664,6.516 2.664,10.44 0,3.924 -0.865,7.404 -2.593,10.439 -1.729,3.036 -4.088,5.371 -7.077,7.006 m 189.334,-24.416 c -1.098,-1.984 -2.536,-3.492 -4.309,-4.519 -1.775,-1.028 -3.69,-1.541 -5.744,-1.541 -2.01,0 -3.914,0.525 -5.711,1.576 -1.799,1.051 -3.246,2.582 -4.344,4.59 -1.098,2.007 -1.646,4.341 -1.646,7.006 0,2.662 0.548,4.962 1.646,6.9 1.098,1.937 2.533,3.41 4.309,4.414 1.773,1.004 3.689,1.506 5.746,1.506 2.054,0 3.969,-0.514 5.744,-1.541 1.773,-1.028 3.211,-2.524 4.309,-4.485 1.097,-1.961 1.646,-4.273 1.646,-6.935 0,-2.662 -0.549,-4.986 -1.646,-6.971 M 168.21,0 c -1.355,1.773 -3.164,3.258 -5.43,4.449 -2.265,1.192 -4.916,1.787 -7.951,1.787 -3.363,0 -6.435,-0.83 -9.215,-2.488 -2.779,-1.658 -4.974,-3.982 -6.586,-6.971 -1.611,-2.99 -2.416,-6.423 -2.416,-10.298 0,-3.877 0.805,-7.346 2.416,-10.405 1.612,-3.058 3.795,-5.441 6.551,-7.146 2.756,-1.705 5.793,-2.557 9.11,-2.557 2.988,0 5.65,0.608 7.986,1.82 2.336,1.215 4.18,2.733 5.535,4.555 v -5.744 h 8.057 V 5.605 H 168.21 Z M 62.212,-10.229 c 0.373,2.989 1.541,5.36 3.502,7.112 1.961,1.75 4.32,2.627 7.076,2.627 3.035,0 5.582,-0.889 7.637,-2.662 2.054,-1.776 3.105,-4.135 3.152,-7.077 z M 82.88,3.854 c -2.85,1.587 -6.096,2.382 -9.738,2.382 -3.786,0 -7.137,-0.818 -10.055,-2.453 -2.92,-1.635 -5.186,-3.959 -6.797,-6.971 -1.611,-3.013 -2.416,-6.505 -2.416,-10.474 0,-3.971 0.828,-7.463 2.486,-10.475 1.659,-3.011 3.948,-5.347 6.868,-7.006 2.918,-1.658 6.222,-2.486 9.914,-2.486 4.529,0 8.324,1.133 11.382,3.399 3.059,2.265 5.174,5.171 6.342,8.722 h -8.617 c -1.775,-3.597 -4.81,-5.394 -9.107,-5.394 -2.991,0 -5.514,0.933 -7.569,2.8 -2.054,1.868 -3.199,4.344 -3.431,7.428 h 29.496 c 0.185,1.168 0.279,2.475 0.279,3.924 0,3.734 -0.795,7.039 -2.383,9.912 -1.588,2.871 -3.806,5.102 -6.654,6.692 m 130.903,-24.381 c -1.097,-2.008 -2.547,-3.539 -4.344,-4.59 -1.798,-1.051 -3.724,-1.576 -5.779,-1.576 -2.008,0 -3.912,0.513 -5.709,1.541 -1.799,1.027 -3.246,2.535 -4.344,4.519 -1.097,1.985 -1.646,4.309 -1.646,6.971 0,2.662 0.549,4.974 1.646,6.935 1.098,1.961 2.545,3.457 4.344,4.485 1.797,1.027 3.701,1.541 5.709,1.541 2.055,0 3.981,-0.502 5.779,-1.506 1.797,-1.004 3.247,-2.477 4.344,-4.414 1.098,-1.938 1.647,-4.238 1.647,-6.9 0,-2.665 -0.549,-4.999 -1.647,-7.006 m 0.875,24.31 c -2.756,1.635 -5.838,2.453 -9.246,2.453 -2.896,0 -5.523,-0.595 -7.883,-1.787 -2.359,-1.191 -4.215,-2.722 -5.568,-4.59 v 18.987 h -7.988 v -51.844 h 7.988 v 5.605 c 1.353,-1.822 3.186,-3.316 5.498,-4.484 2.313,-1.168 4.963,-1.752 7.953,-1.752 3.363,0 6.434,0.852 9.213,2.557 2.777,1.705 4.961,4.088 6.549,7.146 1.588,3.059 2.383,6.528 2.383,10.405 0,3.875 -0.795,7.32 -2.383,10.333 -1.588,3.012 -3.76,5.336 -6.516,6.971 M 21.787,-10.229 c 0.373,2.989 1.541,5.36 3.502,7.112 1.961,1.75 4.32,2.627 7.076,2.627 3.035,0 5.582,-0.889 7.637,-2.662 2.055,-1.776 3.105,-4.135 3.152,-7.077 z M 42.455,3.854 c -2.85,1.587 -6.096,2.382 -9.738,2.382 -3.785,0 -7.137,-0.818 -10.055,-2.453 -2.92,-1.635 -5.185,-3.959 -6.797,-6.971 -1.611,-3.013 -2.416,-6.505 -2.416,-10.474 0,-3.971 0.828,-7.463 2.487,-10.475 1.658,-3.011 3.947,-5.347 6.867,-7.006 2.918,-1.658 6.222,-2.486 9.914,-2.486 4.529,0 8.324,1.133 11.383,3.399 3.058,2.265 5.173,5.171 6.341,8.722 h -8.617 c -1.775,-3.597 -4.81,-5.394 -9.107,-5.394 -2.99,0 -5.514,0.933 -7.569,2.8 -2.054,1.868 -3.199,4.344 -3.431,7.428 h 29.496 c 0.185,1.168 0.279,2.475 0.279,3.924 0,3.734 -0.795,7.039 -2.383,9.912 -1.587,2.871 -3.806,5.102 -6.654,6.692 m -223.033,-24.487 c -1.098,-1.984 -2.535,-3.492 -4.309,-4.519 -1.775,-1.028 -3.689,-1.541 -5.744,-1.541 -2.01,0 -3.914,0.525 -5.711,1.576 -1.799,1.051 -3.246,2.582 -4.344,4.59 -1.097,2.007 -1.646,4.341 -1.646,7.006 0,2.662 0.549,4.962 1.646,6.9 1.098,1.937 2.534,3.41 4.309,4.414 1.774,1.004 3.69,1.506 5.746,1.506 2.055,0 3.969,-0.514 5.744,-1.541 1.774,-1.028 3.211,-2.524 4.309,-4.485 1.098,-1.961 1.646,-4.273 1.646,-6.935 0,-2.662 -0.548,-4.986 -1.646,-6.971 M -178.932,0 c -1.355,1.773 -3.164,3.258 -5.429,4.449 -2.266,1.192 -4.916,1.787 -7.951,1.787 -3.364,0 -6.436,-0.83 -9.215,-2.488 -2.78,-1.658 -4.975,-3.982 -6.586,-6.971 -1.612,-2.99 -2.416,-6.423 -2.416,-10.298 0,-3.877 0.804,-7.346 2.416,-10.405 1.611,-3.058 3.795,-5.441 6.551,-7.146 2.755,-1.705 5.793,-2.557 9.109,-2.557 2.988,0 5.65,0.608 7.986,1.82 2.336,1.215 4.18,2.733 5.535,4.555 v -5.744 h 8.057 V 5.605 h -8.057 z m -45.749,-19.406 c 0,-2.102 -0.537,-3.795 -1.611,-5.08 -1.075,-1.285 -2.639,-1.926 -4.694,-1.926 -2.054,0 -3.609,0.629 -4.66,1.891 -1.051,1.261 -1.6,2.966 -1.646,5.115 h -8.057 c 0,-4.344 1.318,-7.778 3.959,-10.299 2.639,-2.524 6.107,-3.783 10.404,-3.783 4.297,0 7.764,1.259 10.403,3.783 2.638,2.521 3.959,5.955 3.959,10.299 v 35.099 h -8.057 z M 118.96,15.693 h -7.988 v -48.691 h 24.451 v 6.445 H 118.96 Z m -183.73,-36.22 c -1.098,-2.008 -2.547,-3.539 -4.344,-4.59 -1.799,-1.051 -3.725,-1.576 -5.78,-1.576 -2.007,0 -3.912,0.513 -5.708,1.541 -1.799,1.027 -3.247,2.535 -4.344,4.519 -1.098,1.985 -1.647,4.309 -1.647,6.971 0,2.662 0.549,4.974 1.647,6.935 1.097,1.961 2.545,3.457 4.344,4.485 1.796,1.027 3.701,1.541 5.708,1.541 2.055,0 3.981,-0.502 5.78,-1.506 1.797,-1.004 3.246,-2.477 4.344,-4.414 1.097,-1.938 1.646,-4.238 1.646,-6.9 0,-2.665 -0.549,-4.999 -1.646,-7.006 m 0.875,24.31 c -2.756,1.635 -5.838,2.453 -9.247,2.453 -2.896,0 -5.523,-0.595 -7.882,-1.787 -2.36,-1.191 -4.215,-2.722 -5.569,-4.59 v 18.987 h -7.988 v -51.844 h 7.988 v 5.605 c 1.354,-1.822 3.186,-3.316 5.498,-4.484 2.313,-1.168 4.963,-1.752 7.953,-1.752 3.364,0 6.434,0.852 9.213,2.557 2.778,1.705 4.961,4.088 6.549,7.146 1.588,3.059 2.383,6.528 2.383,10.405 0,3.875 -0.795,7.32 -2.383,10.333 -1.588,3.012 -3.76,5.336 -6.515,6.971 m 319.33,-20.037 c -1.309,1.494 -2.862,2.627 -4.659,3.399 -1.798,0.769 -4.099,1.529 -6.902,2.277 -2.102,0.605 -3.689,1.107 -4.764,1.506 -1.074,0.396 -1.986,0.945 -2.732,1.646 -0.748,0.699 -1.121,1.565 -1.121,2.592 0,1.307 0.56,2.357 1.682,3.152 1.121,0.793 2.732,1.192 4.833,1.192 2.149,0 3.852,-0.514 5.114,-1.541 1.261,-1.028 1.963,-2.406 2.103,-4.133 h 7.987 c -0.188,3.828 -1.623,6.853 -4.309,9.072 -2.686,2.219 -6.223,3.328 -10.613,3.328 -2.944,0 -5.547,-0.492 -7.813,-1.472 -2.265,-0.981 -4.006,-2.325 -5.221,-4.028 -1.214,-1.705 -1.82,-3.586 -1.82,-5.64 0,-2.524 0.664,-4.555 1.996,-6.096 1.332,-1.541 2.909,-2.686 4.731,-3.432 1.82,-0.748 4.179,-1.519 7.076,-2.312 2.988,-0.842 5.17,-1.613 6.549,-2.313 1.379,-0.701 2.068,-1.775 2.068,-3.222 0,-1.356 -0.619,-2.465 -1.857,-3.328 -1.239,-0.864 -2.977,-1.295 -5.219,-1.295 -2.149,0 -3.936,0.548 -5.359,1.646 -1.426,1.098 -2.207,2.463 -2.348,4.098 h -8.268 c 0.094,-2.336 0.84,-4.449 2.242,-6.34 1.401,-1.893 3.303,-3.387 5.709,-4.484 2.407,-1.098 5.127,-1.647 8.163,-1.647 2.988,0 5.593,0.492 7.812,1.471 2.219,0.98 3.934,2.336 5.149,4.064 1.214,1.727 1.822,3.69 1.822,5.885 -0.047,2.475 -0.725,4.459 -2.031,5.955 M -109.678,4.344 c -2.406,1.261 -5.127,1.892 -8.162,1.892 -2.849,0 -5.512,-0.689 -7.986,-2.068 -2.477,-1.379 -4.297,-3.234 -5.465,-5.568 -1.309,2.474 -3.176,4.365 -5.605,5.673 -2.43,1.309 -5.184,1.963 -8.266,1.963 -2.289,0 -4.44,-0.445 -6.447,-1.332 -2.008,-0.886 -3.666,-2.125 -4.973,-3.713 v 4.414 h -7.988 v -38.603 h 7.988 v 21.578 c 0,3.457 0.875,6.108 2.627,7.951 1.75,1.844 4.121,2.768 7.111,2.768 2.989,0 5.346,-0.924 7.075,-2.768 1.728,-1.843 2.593,-4.494 2.593,-7.951 v -21.578 h 7.916 v 21.578 c 0,3.457 0.875,6.108 2.627,7.951 1.752,1.844 4.123,2.768 7.112,2.768 2.988,0 5.347,-0.924 7.076,-2.768 1.726,-1.843 2.592,-4.494 2.592,-7.951 v -21.578 h 7.917 v 22.769 c 0,3.502 -0.689,6.491 -2.068,8.967 -1.379,2.477 -3.269,4.344 -5.674,5.606"
       style="fill:#ffffff;fill-opacity:1;fill-rule:nonzero;stroke:none"
       transform="matrix(1.3333333,0,0,-1.3333333,516.5104,341.75747)"
       clip-path="url(#clipPath7-0)" /></g></svg>
