<?xml version="1.0" encoding="UTF-8" standalone="no"?>
<!-- Created with Inkscape (http://www.inkscape.org/) -->

<svg
   width="101.94749mm"
   height="34.740135mm"
   viewBox="0 0 101.94748 34.740135"
   version="1.1"
   id="svg1"
   xmlns="http://www.w3.org/2000/svg"
   xmlns:svg="http://www.w3.org/2000/svg">
  <defs
     id="defs1">
    <clipPath
       clipPathUnits="userSpaceOnUse"
       id="clipPath3">
      <path
         d="M 0,613.223 H 784.997 V 0 H 0 Z"
         transform="translate(-271.31161,-193.79651)"
         id="path3" />
    </clipPath>
  </defs>
  <g
     id="layer1"
     transform="translate(-74.395051,-76.065766)">
    <path
       id="path2-0"
       d="m 0,0 12.474,73.184 h 22.267 l 4.026,23.623 h -72.668 l -4.027,-23.623 h 22.512 L -27.89,0 Z M 85.44,96.807 75.045,35.821 c -0.416,-2.439 -0.892,-5.764 -2.128,-8.473 -1.165,-2.555 -3.249,-4.623 -7.213,-4.623 -3.829,0 -5.236,2.06 -5.616,4.751 -0.363,2.573 0.323,5.906 0.761,8.474 L 71.222,96.807 H 43.332 L 32.544,33.51 C 30.552,21.827 29.281,-1.669 61.546,-1.669 c 32.264,0 39.003,23.496 40.995,35.179 l 10.788,63.297 z M 174.838,0 160.929,40.315 c 11.774,4.109 18.316,13.61 20.132,24.266 4.355,25.55 -12.007,32.226 -36.205,32.226 H 117.923 L 101.423,0 h 27.89 l 4.398,25.807 c 0.81,4.75 1.346,9.501 2.019,14.251 l 0.318,0.257 L 144.625,0 Z m -36.64,52.127 4.07,23.881 c 7.722,0.385 12.578,-3.21 11.133,-11.684 -1.072,-6.291 -6.066,-12.325 -13.448,-12.325 z M 201.979,0 l 6.324,37.105 h 31.21 l 3.896,22.854 h -31.211 l 2.386,13.995 h 32.577 l 3.896,22.853 H 190.59 L 174.089,0 Z"
       style="fill:#ffffff;fill-opacity:1;fill-rule:nonzero;stroke:none"
       transform="matrix(0.35277776,0,0,-0.35277776,87.775202,110.21712)"
       clip-path="url(#clipPath3)" />
  </g>
</svg>
